<svg width="107" height="15" viewBox="0 0 107 15" fill="none" xmlns="http://www.w3.org/2000/svg">
<path d="M0.26 14V1.04H2.141V6.629H8.621V1.04H10.511V14H8.621V8.402H2.141V14H0.26ZM17.2603 14.27C16.2883 14.27 15.4453 14.051 14.7313 13.613C14.0173 13.175 13.4653 12.572 13.0753 11.804C12.6913 11.03 12.4993 10.139 12.4993 9.131C12.4993 8.117 12.6973 7.226 13.0933 6.458C13.4893 5.684 14.0443 5.084 14.7583 4.658C15.4723 4.226 16.3063 4.01 17.2603 4.01C18.2323 4.01 19.0753 4.229 19.7893 4.667C20.5033 5.105 21.0553 5.708 21.4453 6.476C21.8353 7.244 22.0303 8.129 22.0303 9.131C22.0303 10.145 21.8323 11.039 21.4363 11.813C21.0463 12.581 20.4943 13.184 19.7803 13.622C19.0663 14.054 18.2263 14.27 17.2603 14.27ZM17.2603 12.497C18.1903 12.497 18.8833 12.185 19.3393 11.561C19.8013 10.931 20.0323 10.121 20.0323 9.131C20.0323 8.117 19.7983 7.307 19.3303 6.701C18.8683 6.089 18.1783 5.783 17.2603 5.783C16.6303 5.783 16.1113 5.927 15.7033 6.215C15.2953 6.497 14.9923 6.89 14.7943 7.394C14.5963 7.892 14.4973 8.471 14.4973 9.131C14.4973 10.151 14.7313 10.967 15.1993 11.579C15.6673 12.191 16.3543 12.497 17.2603 12.497ZM25.7265 14L22.7565 4.271L24.6195 4.28L26.6535 10.949L28.7055 4.28H30.3255L32.3775 10.949L34.4115 4.28H36.2655L33.2955 14H31.7835L29.5155 6.962L27.2385 14H25.7265ZM41.6607 2.687V0.86H43.5417V2.687H41.6607ZM41.6607 14V4.28H43.5417V14H41.6607ZM51.8064 14C51.1944 14.12 50.5944 14.171 50.0064 14.153C49.4184 14.135 48.8934 14.021 48.4314 13.811C47.9694 13.601 47.6214 13.271 47.3874 12.821C47.1774 12.419 47.0634 12.011 47.0454 11.597C47.0334 11.177 47.0274 10.703 47.0274 10.175V1.58H48.9174V10.085C48.9174 10.475 48.9204 10.814 48.9264 11.102C48.9384 11.39 49.0014 11.633 49.1154 11.831C49.3314 12.203 49.6734 12.416 50.1414 12.47C50.6154 12.518 51.1704 12.497 51.8064 12.407V14ZM45.1644 5.792V4.28H51.8064V5.792H45.1644ZM59.5292 14L56.5592 4.271L58.4222 4.28L60.4562 10.949L62.5082 4.28H64.1282L66.1802 10.949L68.2142 4.28H70.0682L67.0982 14H65.5862L63.3182 6.962L61.0412 14H59.5292ZM75.5494 14.27C74.5774 14.27 73.7344 14.051 73.0204 13.613C72.3064 13.175 71.7544 12.572 71.3644 11.804C70.9804 11.03 70.7884 10.139 70.7884 9.131C70.7884 8.117 70.9864 7.226 71.3824 6.458C71.7784 5.684 72.3334 5.084 73.0474 4.658C73.7614 4.226 74.5954 4.01 75.5494 4.01C76.5214 4.01 77.3644 4.229 78.0784 4.667C78.7924 5.105 79.3444 5.708 79.7344 6.476C80.1244 7.244 80.3194 8.129 80.3194 9.131C80.3194 10.145 80.1214 11.039 79.7254 11.813C79.3354 12.581 78.7834 13.184 78.0694 13.622C77.3554 14.054 76.5154 14.27 75.5494 14.27ZM75.5494 12.497C76.4794 12.497 77.1724 12.185 77.6284 11.561C78.0904 10.931 78.3214 10.121 78.3214 9.131C78.3214 8.117 78.0874 7.307 77.6194 6.701C77.1574 6.089 76.4674 5.783 75.5494 5.783C74.9194 5.783 74.4004 5.927 73.9924 6.215C73.5844 6.497 73.2814 6.89 73.0834 7.394C72.8854 7.892 72.7864 8.471 72.7864 9.131C72.7864 10.151 73.0204 10.967 73.4884 11.579C73.9564 12.191 74.6434 12.497 75.5494 12.497ZM82.2971 14V4.28H83.9711V6.638L83.7371 6.332C83.8571 6.02 84.0131 5.735 84.2051 5.477C84.3971 5.213 84.6191 4.997 84.8711 4.829C85.1171 4.649 85.3901 4.511 85.6901 4.415C85.9961 4.313 86.3081 4.253 86.6261 4.235C86.9441 4.211 87.2501 4.226 87.5441 4.28V6.044C87.2261 5.96 86.8721 5.936 86.4821 5.972C86.0981 6.008 85.7441 6.131 85.4201 6.341C85.1141 6.539 84.8711 6.779 84.6911 7.061C84.5171 7.343 84.3911 7.658 84.3131 8.006C84.2351 8.348 84.1961 8.711 84.1961 9.095V14H82.2971ZM89.249 14L89.258 1.04H91.166V8.96L94.982 4.28H97.376L93.344 9.14L97.79 14H95.234L91.166 9.32V14H89.249ZM102.239 14.261C101.057 14.261 100.094 14 99.3497 13.478C98.6057 12.956 98.1497 12.221 97.9817 11.273L99.9077 10.976C100.028 11.48 100.304 11.879 100.736 12.173C101.174 12.461 101.717 12.605 102.365 12.605C102.953 12.605 103.412 12.485 103.742 12.245C104.078 12.005 104.246 11.675 104.246 11.255C104.246 11.009 104.186 10.811 104.066 10.661C103.952 10.505 103.709 10.358 103.337 10.22C102.965 10.082 102.398 9.911 101.636 9.707C100.802 9.491 100.139 9.26 99.6467 9.014C99.1607 8.762 98.8127 8.471 98.6027 8.141C98.3987 7.805 98.2967 7.4 98.2967 6.926C98.2967 6.338 98.4527 5.825 98.7647 5.387C99.0767 4.949 99.5147 4.61 100.079 4.37C100.649 4.13 101.315 4.01 102.077 4.01C102.821 4.01 103.484 4.127 104.066 4.361C104.648 4.595 105.119 4.928 105.479 5.36C105.839 5.786 106.055 6.287 106.127 6.863L104.201 7.214C104.135 6.746 103.916 6.377 103.544 6.107C103.172 5.837 102.689 5.69 102.095 5.666C101.525 5.642 101.063 5.738 100.709 5.954C100.355 6.164 100.178 6.455 100.178 6.827C100.178 7.043 100.244 7.226 100.376 7.376C100.514 7.526 100.778 7.67 101.168 7.808C101.558 7.946 102.134 8.111 102.896 8.303C103.712 8.513 104.36 8.747 104.84 9.005C105.32 9.257 105.662 9.56 105.866 9.914C106.076 10.262 106.181 10.685 106.181 11.183C106.181 12.143 105.83 12.896 105.128 13.442C104.432 13.988 103.469 14.261 102.239 14.261Z" fill="#1F1F1F"/>
</svg>
