<svg width="58" height="19" viewBox="0 0 58 19" fill="none" xmlns="http://www.w3.org/2000/svg">
<path d="M0.26 14V1.04H5.498C5.624 1.04 5.78 1.046 5.966 1.058C6.152 1.064 6.329 1.082 6.497 1.112C7.217 1.226 7.817 1.472 8.297 1.85C8.783 2.228 9.146 2.705 9.386 3.281C9.626 3.857 9.746 4.493 9.746 5.189C9.746 5.891 9.626 6.53 9.386 7.106C9.146 7.682 8.783 8.159 8.297 8.537C7.817 8.915 7.217 9.161 6.497 9.275C6.329 9.299 6.149 9.317 5.957 9.329C5.771 9.341 5.618 9.347 5.498 9.347H2.141V14H0.26ZM2.141 7.565H5.426C5.546 7.565 5.678 7.559 5.822 7.547C5.972 7.535 6.113 7.514 6.245 7.484C6.629 7.394 6.938 7.229 7.172 6.989C7.406 6.743 7.574 6.461 7.676 6.143C7.778 5.825 7.829 5.507 7.829 5.189C7.829 4.871 7.778 4.556 7.676 4.244C7.574 3.926 7.406 3.647 7.172 3.407C6.938 3.161 6.629 2.993 6.245 2.903C6.113 2.867 5.972 2.843 5.822 2.831C5.678 2.819 5.546 2.813 5.426 2.813H2.141V7.565ZM11.5452 14V4.28H13.2192V6.638L12.9852 6.332C13.1052 6.02 13.2612 5.735 13.4532 5.477C13.6452 5.213 13.8672 4.997 14.1192 4.829C14.3652 4.649 14.6382 4.511 14.9382 4.415C15.2442 4.313 15.5562 4.253 15.8742 4.235C16.1922 4.211 16.4982 4.226 16.7922 4.28V6.044C16.4742 5.96 16.1202 5.936 15.7302 5.972C15.3462 6.008 14.9922 6.131 14.6682 6.341C14.3622 6.539 14.1192 6.779 13.9392 7.061C13.7652 7.343 13.6392 7.658 13.5612 8.006C13.4832 8.348 13.4442 8.711 13.4442 9.095V14H11.5452ZM18.6861 2.687V0.86H20.5671V2.687H18.6861ZM18.6861 14V4.28H20.5671V14H18.6861ZM27.4278 14.27C26.4318 14.27 25.5858 14.048 24.8898 13.604C24.1938 13.16 23.6598 12.551 23.2878 11.777C22.9218 11.003 22.7358 10.124 22.7298 9.14C22.7358 8.138 22.9278 7.253 23.3058 6.485C23.6838 5.711 24.2238 5.105 24.9258 4.667C25.6278 4.229 26.4708 4.01 27.4548 4.01C28.5168 4.01 29.4228 4.274 30.1728 4.802C30.9288 5.33 31.4268 6.053 31.6668 6.971L29.7948 7.511C29.6088 6.965 29.3028 6.542 28.8768 6.242C28.4568 5.936 27.9738 5.783 27.4278 5.783C26.8098 5.783 26.3028 5.93 25.9068 6.224C25.5108 6.512 25.2168 6.908 25.0248 7.412C24.8328 7.916 24.7338 8.492 24.7278 9.14C24.7338 10.142 24.9618 10.952 25.4118 11.57C25.8678 12.188 26.5398 12.497 27.4278 12.497C28.0338 12.497 28.5228 12.359 28.8948 12.083C29.2728 11.801 29.5608 11.399 29.7588 10.877L31.6668 11.327C31.3488 12.275 30.8238 13.004 30.0918 13.514C29.3598 14.018 28.4718 14.27 27.4278 14.27ZM33.4166 2.687V0.86H35.2976V2.687H33.4166ZM33.4166 14V4.28H35.2976V14H33.4166ZM44.8222 14V9.221C44.8222 8.843 44.7892 8.456 44.7232 8.06C44.6632 7.658 44.5432 7.286 44.3632 6.944C44.1892 6.602 43.9402 6.326 43.6162 6.116C43.2982 5.906 42.8812 5.801 42.3652 5.801C42.0292 5.801 41.7112 5.858 41.4112 5.972C41.1112 6.08 40.8472 6.257 40.6192 6.503C40.3972 6.749 40.2202 7.073 40.0882 7.475C39.9622 7.877 39.8992 8.366 39.8992 8.942L38.7292 8.501C38.7292 7.619 38.8942 6.842 39.2242 6.17C39.5542 5.492 40.0282 4.964 40.6462 4.586C41.2642 4.208 42.0112 4.019 42.8872 4.019C43.5592 4.019 44.1232 4.127 44.5792 4.343C45.0352 4.559 45.4042 4.844 45.6862 5.198C45.9742 5.546 46.1932 5.927 46.3432 6.341C46.4932 6.755 46.5952 7.16 46.6492 7.556C46.7032 7.952 46.7302 8.3 46.7302 8.6V14H44.8222ZM37.9912 14V4.28H39.6742V7.088H39.8992V14H37.9912ZM53.0795 18.59C52.5575 18.59 52.0505 18.509 51.5585 18.347C51.0725 18.185 50.6285 17.945 50.2265 17.627C49.8245 17.315 49.4915 16.928 49.2275 16.466L50.9645 15.584C51.1745 15.998 51.4745 16.301 51.8645 16.493C52.2545 16.685 52.6655 16.781 53.0975 16.781C53.6315 16.781 54.0875 16.685 54.4655 16.493C54.8435 16.307 55.1285 16.025 55.3205 15.647C55.5185 15.269 55.6145 14.801 55.6085 14.243V11.525H55.8335V4.28H57.4985V14.261C57.4985 14.519 57.4895 14.765 57.4715 14.999C57.4535 15.233 57.4205 15.467 57.3725 15.701C57.2345 16.355 56.9705 16.895 56.5805 17.321C56.1965 17.747 55.7045 18.065 55.1045 18.275C54.5105 18.485 53.8355 18.59 53.0795 18.59ZM52.9355 14.27C52.0295 14.27 51.2465 14.045 50.5865 13.595C49.9325 13.145 49.4255 12.533 49.0655 11.759C48.7115 10.979 48.5345 10.103 48.5345 9.131C48.5345 8.153 48.7145 7.28 49.0745 6.512C49.4345 5.738 49.9445 5.129 50.6045 4.685C51.2705 4.235 52.0595 4.01 52.9715 4.01C53.8895 4.01 54.6605 4.235 55.2845 4.685C55.9145 5.129 56.3885 5.738 56.7065 6.512C57.0305 7.286 57.1925 8.159 57.1925 9.131C57.1925 10.103 57.0305 10.976 56.7065 11.75C56.3825 12.524 55.9055 13.139 55.2755 13.595C54.6455 14.045 53.8655 14.27 52.9355 14.27ZM53.1965 12.569C53.8145 12.569 54.3185 12.422 54.7085 12.128C55.0985 11.834 55.3835 11.429 55.5635 10.913C55.7435 10.397 55.8335 9.803 55.8335 9.131C55.8335 8.459 55.7405 7.865 55.5545 7.349C55.3745 6.833 55.0925 6.431 54.7085 6.143C54.3305 5.855 53.8475 5.711 53.2595 5.711C52.6355 5.711 52.1225 5.864 51.7205 6.17C51.3185 6.476 51.0185 6.887 50.8205 7.403C50.6285 7.919 50.5325 8.495 50.5325 9.131C50.5325 9.773 50.6285 10.355 50.8205 10.877C51.0185 11.393 51.3125 11.804 51.7025 12.11C52.0985 12.416 52.5965 12.569 53.1965 12.569Z" fill="#1F1F1F"/>
</svg>
