<svg width="68" height="14" viewBox="0 0 68 14" fill="none" xmlns="http://www.w3.org/2000/svg">
<path d="M0.26 13V0.0399995H5.498C5.624 0.0399995 5.78 0.0459994 5.966 0.0579993C6.152 0.0639995 6.329 0.0819997 6.497 0.112C7.217 0.225999 7.817 0.471999 8.297 0.85C8.783 1.228 9.146 1.705 9.386 2.281C9.626 2.857 9.746 3.493 9.746 4.189C9.746 4.891 9.626 5.53 9.386 6.106C9.146 6.682 8.783 7.159 8.297 7.537C7.817 7.915 7.217 8.161 6.497 8.275C6.329 8.299 6.149 8.317 5.957 8.329C5.771 8.341 5.618 8.347 5.498 8.347H2.141V13H0.26ZM2.141 6.565H5.426C5.546 6.565 5.678 6.559 5.822 6.547C5.972 6.535 6.113 6.514 6.245 6.484C6.629 6.394 6.938 6.229 7.172 5.989C7.406 5.743 7.574 5.461 7.676 5.143C7.778 4.825 7.829 4.507 7.829 4.189C7.829 3.871 7.778 3.556 7.676 3.244C7.574 2.926 7.406 2.647 7.172 2.407C6.938 2.161 6.629 1.993 6.245 1.903C6.113 1.867 5.972 1.843 5.822 1.831C5.678 1.819 5.546 1.813 5.426 1.813H2.141V6.565ZM11.5452 13V3.28H13.2192V5.638L12.9852 5.332C13.1052 5.02 13.2612 4.735 13.4532 4.477C13.6452 4.213 13.8672 3.997 14.1192 3.829C14.3652 3.649 14.6382 3.511 14.9382 3.415C15.2442 3.313 15.5562 3.253 15.8742 3.235C16.1922 3.211 16.4982 3.226 16.7922 3.28V5.044C16.4742 4.96 16.1202 4.936 15.7302 4.972C15.3462 5.008 14.9922 5.131 14.6682 5.341C14.3622 5.539 14.1192 5.779 13.9392 6.061C13.7652 6.343 13.6392 6.658 13.5612 7.006C13.4832 7.348 13.4442 7.711 13.4442 8.095V13H11.5452ZM22.5513 13.27C21.5793 13.27 20.7363 13.051 20.0223 12.613C19.3083 12.175 18.7563 11.572 18.3663 10.804C17.9823 10.03 17.7903 9.139 17.7903 8.131C17.7903 7.117 17.9883 6.226 18.3843 5.458C18.7803 4.684 19.3353 4.084 20.0493 3.658C20.7633 3.226 21.5973 3.01 22.5513 3.01C23.5233 3.01 24.3663 3.229 25.0803 3.667C25.7943 4.105 26.3463 4.708 26.7363 5.476C27.1263 6.244 27.3213 7.129 27.3213 8.131C27.3213 9.145 27.1233 10.039 26.7273 10.813C26.3373 11.581 25.7853 12.184 25.0713 12.622C24.3573 13.054 23.5173 13.27 22.5513 13.27ZM22.5513 11.497C23.4813 11.497 24.1743 11.185 24.6303 10.561C25.0923 9.931 25.3233 9.121 25.3233 8.131C25.3233 7.117 25.0893 6.307 24.6213 5.701C24.1593 5.089 23.4693 4.783 22.5513 4.783C21.9213 4.783 21.4023 4.927 20.9943 5.215C20.5863 5.497 20.2833 5.89 20.0853 6.394C19.8873 6.892 19.7883 7.471 19.7883 8.131C19.7883 9.151 20.0223 9.967 20.4903 10.579C20.9583 11.191 21.6453 11.497 22.5513 11.497ZM33.1601 13.27C32.2541 13.27 31.4711 13.045 30.8111 12.595C30.1571 12.145 29.6501 11.533 29.2901 10.759C28.9361 9.979 28.7591 9.103 28.7591 8.131C28.7591 7.153 28.9391 6.28 29.2991 5.512C29.6591 4.738 30.1691 4.129 30.8291 3.685C31.4951 3.235 32.2841 3.01 33.1961 3.01C34.1141 3.01 34.8851 3.235 35.5091 3.685C36.1391 4.129 36.6131 4.738 36.9311 5.512C37.2551 6.286 37.4171 7.159 37.4171 8.131C37.4171 9.103 37.2551 9.976 36.9311 10.75C36.6071 11.524 36.1301 12.139 35.5001 12.595C34.8701 13.045 34.0901 13.27 33.1601 13.27ZM33.4211 11.569C34.0391 11.569 34.5431 11.422 34.9331 11.128C35.3231 10.834 35.6081 10.429 35.7881 9.913C35.9681 9.397 36.0581 8.803 36.0581 8.131C36.0581 7.459 35.9651 6.865 35.7791 6.349C35.5991 5.833 35.3171 5.431 34.9331 5.143C34.5551 4.855 34.0721 4.711 33.4841 4.711C32.8601 4.711 32.3471 4.864 31.9451 5.17C31.5431 5.476 31.2431 5.887 31.0451 6.403C30.8531 6.919 30.7571 7.495 30.7571 8.131C30.7571 8.773 30.8531 9.355 31.0451 9.877C31.2431 10.393 31.5371 10.804 31.9271 11.11C32.3231 11.416 32.8211 11.569 33.4211 11.569ZM36.0581 13V6.007H35.8421V0.0399995H37.7321V13H36.0581ZM43.9132 13.261C43.2412 13.261 42.6772 13.153 42.2212 12.937C41.7652 12.721 41.3932 12.439 41.1052 12.091C40.8232 11.737 40.6072 11.353 40.4572 10.939C40.3072 10.525 40.2052 10.12 40.1512 9.724C40.0972 9.328 40.0702 8.98 40.0702 8.68V3.28H41.9782V8.059C41.9782 8.437 42.0082 8.827 42.0682 9.229C42.1342 9.625 42.2542 9.994 42.4282 10.336C42.6082 10.678 42.8572 10.954 43.1752 11.164C43.4992 11.374 43.9192 11.479 44.4352 11.479C44.7712 11.479 45.0892 11.425 45.3892 11.317C45.6892 11.203 45.9502 11.023 46.1722 10.777C46.4002 10.531 46.5772 10.207 46.7032 9.805C46.8352 9.403 46.9012 8.914 46.9012 8.338L48.0712 8.779C48.0712 9.661 47.9062 10.441 47.5762 11.119C47.2462 11.791 46.7722 12.316 46.1542 12.694C45.5362 13.072 44.7892 13.261 43.9132 13.261ZM47.1262 13V10.192H46.9012V3.28H48.8002V13H47.1262ZM55.4825 13.27C54.4865 13.27 53.6405 13.048 52.9445 12.604C52.2485 12.16 51.7145 11.551 51.3425 10.777C50.9765 10.003 50.7905 9.124 50.7845 8.14C50.7905 7.138 50.9825 6.253 51.3605 5.485C51.7385 4.711 52.2785 4.105 52.9805 3.667C53.6825 3.229 54.5255 3.01 55.5095 3.01C56.5715 3.01 57.4775 3.274 58.2275 3.802C58.9835 4.33 59.4815 5.053 59.7215 5.971L57.8495 6.511C57.6635 5.965 57.3575 5.542 56.9315 5.242C56.5115 4.936 56.0285 4.783 55.4825 4.783C54.8645 4.783 54.3575 4.93 53.9615 5.224C53.5655 5.512 53.2715 5.908 53.0795 6.412C52.8875 6.916 52.7885 7.492 52.7825 8.14C52.7885 9.142 53.0165 9.952 53.4665 10.57C53.9225 11.188 54.5945 11.497 55.4825 11.497C56.0885 11.497 56.5775 11.359 56.9495 11.083C57.3275 10.801 57.6155 10.399 57.8135 9.877L59.7215 10.327C59.4035 11.275 58.8785 12.004 58.1465 12.514C57.4145 13.018 56.5265 13.27 55.4825 13.27ZM67.1169 13C66.5049 13.12 65.9049 13.171 65.3169 13.153C64.7289 13.135 64.2039 13.021 63.7419 12.811C63.2799 12.601 62.9319 12.271 62.6979 11.821C62.4879 11.419 62.3739 11.011 62.3559 10.597C62.3439 10.177 62.3379 9.703 62.3379 9.175V0.579999H64.2279V9.085C64.2279 9.475 64.2309 9.814 64.2369 10.102C64.2489 10.39 64.3119 10.633 64.4259 10.831C64.6419 11.203 64.9839 11.416 65.4519 11.47C65.9259 11.518 66.4809 11.497 67.1169 11.407V13ZM60.4749 4.792V3.28H67.1169V4.792H60.4749Z" fill="#1F1F1F"/>
</svg>
