<svg width="139" height="27" viewBox="0 0 139 27" fill="none" xmlns="http://www.w3.org/2000/svg">
<g filter="url(#filter0_d_0_21)">
<path d="M4.26 14V1.04H9.498C9.624 1.04 9.78 1.046 9.966 1.058C10.152 1.064 10.329 1.082 10.497 1.112C11.217 1.226 11.817 1.472 12.297 1.85C12.783 2.228 13.146 2.705 13.386 3.281C13.626 3.857 13.746 4.493 13.746 5.189C13.746 6.221 13.482 7.112 12.954 7.862C12.426 8.606 11.634 9.071 10.578 9.257L9.813 9.347H6.141V14H4.26ZM11.838 14L9.282 8.726L11.181 8.24L13.989 14H11.838ZM6.141 7.565H9.426C9.546 7.565 9.678 7.559 9.822 7.547C9.972 7.535 10.113 7.514 10.245 7.484C10.629 7.394 10.938 7.229 11.172 6.989C11.406 6.743 11.574 6.461 11.676 6.143C11.778 5.825 11.829 5.507 11.829 5.189C11.829 4.871 11.778 4.556 11.676 4.244C11.574 3.926 11.406 3.647 11.172 3.407C10.938 3.161 10.629 2.993 10.245 2.903C10.113 2.867 9.972 2.843 9.822 2.831C9.678 2.819 9.546 2.813 9.426 2.813H6.141V7.565ZM20.278 14.27C19.312 14.27 18.463 14.06 17.731 13.64C17.005 13.214 16.438 12.623 16.03 11.867C15.628 11.105 15.427 10.223 15.427 9.221C15.427 8.159 15.625 7.238 16.021 6.458C16.423 5.678 16.981 5.075 17.695 4.649C18.409 4.223 19.24 4.01 20.188 4.01C21.178 4.01 22.021 4.241 22.717 4.703C23.413 5.159 23.932 5.81 24.274 6.656C24.622 7.502 24.76 8.507 24.688 9.671H22.807V8.987C22.795 7.859 22.579 7.025 22.159 6.485C21.745 5.945 21.112 5.675 20.26 5.675C19.318 5.675 18.61 5.972 18.136 6.566C17.662 7.16 17.425 8.018 17.425 9.14C17.425 10.208 17.662 11.036 18.136 11.624C18.61 12.206 19.294 12.497 20.188 12.497C20.776 12.497 21.283 12.365 21.709 12.101C22.141 11.831 22.477 11.447 22.717 10.949L24.562 11.534C24.184 12.404 23.611 13.079 22.843 13.559C22.075 14.033 21.22 14.27 20.278 14.27ZM16.813 9.671V8.204H23.752V9.671H16.813ZM30.4243 14.261C29.2423 14.261 28.2793 14 27.5353 13.478C26.7913 12.956 26.3353 12.221 26.1673 11.273L28.0933 10.976C28.2133 11.48 28.4893 11.879 28.9213 12.173C29.3593 12.461 29.9023 12.605 30.5503 12.605C31.1383 12.605 31.5973 12.485 31.9273 12.245C32.2633 12.005 32.4313 11.675 32.4313 11.255C32.4313 11.009 32.3713 10.811 32.2513 10.661C32.1373 10.505 31.8943 10.358 31.5223 10.22C31.1503 10.082 30.5833 9.911 29.8213 9.707C28.9873 9.491 28.3243 9.26 27.8323 9.014C27.3463 8.762 26.9983 8.471 26.7883 8.141C26.5843 7.805 26.4823 7.4 26.4823 6.926C26.4823 6.338 26.6383 5.825 26.9503 5.387C27.2623 4.949 27.7003 4.61 28.2643 4.37C28.8343 4.13 29.5003 4.01 30.2623 4.01C31.0063 4.01 31.6693 4.127 32.2513 4.361C32.8333 4.595 33.3043 4.928 33.6643 5.36C34.0243 5.786 34.2403 6.287 34.3123 6.863L32.3863 7.214C32.3203 6.746 32.1013 6.377 31.7293 6.107C31.3573 5.837 30.8743 5.69 30.2803 5.666C29.7103 5.642 29.2483 5.738 28.8943 5.954C28.5403 6.164 28.3633 6.455 28.3633 6.827C28.3633 7.043 28.4293 7.226 28.5613 7.376C28.6993 7.526 28.9633 7.67 29.3533 7.808C29.7433 7.946 30.3193 8.111 31.0813 8.303C31.8973 8.513 32.5453 8.747 33.0253 9.005C33.5053 9.257 33.8473 9.56 34.0513 9.914C34.2613 10.262 34.3663 10.685 34.3663 11.183C34.3663 12.143 34.0153 12.896 33.3133 13.442C32.6173 13.988 31.6543 14.261 30.4243 14.261ZM41.7667 14.27C40.4707 14.27 39.3667 13.988 38.4547 13.424C37.5427 12.854 36.8437 12.062 36.3577 11.048C35.8777 10.034 35.6377 8.858 35.6377 7.52C35.6377 6.182 35.8777 5.006 36.3577 3.992C36.8437 2.978 37.5427 2.189 38.4547 1.625C39.3667 1.055 40.4707 0.77 41.7667 0.77C43.2607 0.77 44.4967 1.148 45.4747 1.904C46.4587 2.66 47.1427 3.677 47.5267 4.955L45.6187 5.468C45.3667 4.562 44.9167 3.851 44.2687 3.335C43.6267 2.819 42.7927 2.561 41.7667 2.561C40.8487 2.561 40.0837 2.768 39.4717 3.182C38.8597 3.596 38.3977 4.175 38.0857 4.919C37.7797 5.663 37.6267 6.53 37.6267 7.52C37.6207 8.51 37.7707 9.377 38.0767 10.121C38.3887 10.865 38.8507 11.444 39.4627 11.858C40.0807 12.272 40.8487 12.479 41.7667 12.479C42.7927 12.479 43.6267 12.221 44.2687 11.705C44.9167 11.183 45.3667 10.472 45.6187 9.572L47.5267 10.085C47.1427 11.363 46.4587 12.38 45.4747 13.136C44.4967 13.892 43.2607 14.27 41.7667 14.27ZM53.7271 14.27C52.7551 14.27 51.9121 14.051 51.1981 13.613C50.4841 13.175 49.9321 12.572 49.5421 11.804C49.1581 11.03 48.9661 10.139 48.9661 9.131C48.9661 8.117 49.1641 7.226 49.5601 6.458C49.9561 5.684 50.5111 5.084 51.2251 4.658C51.9391 4.226 52.7731 4.01 53.7271 4.01C54.6991 4.01 55.5421 4.229 56.2561 4.667C56.9701 5.105 57.5221 5.708 57.9121 6.476C58.3021 7.244 58.4971 8.129 58.4971 9.131C58.4971 10.145 58.2991 11.039 57.9031 11.813C57.5131 12.581 56.9611 13.184 56.2471 13.622C55.5331 14.054 54.6931 14.27 53.7271 14.27ZM53.7271 12.497C54.6571 12.497 55.3501 12.185 55.8061 11.561C56.2681 10.931 56.4991 10.121 56.4991 9.131C56.4991 8.117 56.2651 7.307 55.7971 6.701C55.3351 6.089 54.6451 5.783 53.7271 5.783C53.0971 5.783 52.5781 5.927 52.1701 6.215C51.7621 6.497 51.4591 6.89 51.2611 7.394C51.0631 7.892 50.9641 8.471 50.9641 9.131C50.9641 10.151 51.1981 10.967 51.6661 11.579C52.1341 12.191 52.8211 12.497 53.7271 12.497ZM72.1208 14L72.1298 7.943C72.1298 7.241 71.9498 6.695 71.5898 6.305C71.2298 5.909 70.7558 5.711 70.1678 5.711C69.8078 5.711 69.4778 5.795 69.1778 5.963C68.8838 6.125 68.6438 6.371 68.4578 6.701C68.2778 7.025 68.1878 7.433 68.1878 7.925L67.2788 7.466C67.2668 6.782 67.4108 6.182 67.7108 5.666C68.0168 5.15 68.4308 4.751 68.9528 4.469C69.4748 4.181 70.0598 4.037 70.7078 4.037C71.7578 4.037 72.5708 4.352 73.1468 4.982C73.7228 5.612 74.0108 6.449 74.0108 7.493L74.0018 14H72.1208ZM60.4658 14V4.28H62.1398V7.088H62.3558V14H60.4658ZM66.2978 14L66.3068 7.979C66.3068 7.271 66.1268 6.716 65.7668 6.314C65.4128 5.912 64.9358 5.711 64.3358 5.711C63.7418 5.711 63.2618 5.915 62.8958 6.323C62.5358 6.731 62.3558 7.265 62.3558 7.925L61.4558 7.349C61.4558 6.713 61.6088 6.146 61.9148 5.648C62.2208 5.15 62.6348 4.757 63.1568 4.469C63.6788 4.181 64.2698 4.037 64.9298 4.037C65.6198 4.037 66.2078 4.184 66.6938 4.478C67.1798 4.766 67.5488 5.171 67.8008 5.693C68.0588 6.215 68.1878 6.821 68.1878 7.511L68.1788 14H66.2978ZM87.9939 14L88.0029 7.943C88.0029 7.241 87.8229 6.695 87.4629 6.305C87.1029 5.909 86.6289 5.711 86.0409 5.711C85.6809 5.711 85.3509 5.795 85.0509 5.963C84.7569 6.125 84.5169 6.371 84.3309 6.701C84.1509 7.025 84.0609 7.433 84.0609 7.925L83.1519 7.466C83.1399 6.782 83.2839 6.182 83.5839 5.666C83.8899 5.15 84.3039 4.751 84.8259 4.469C85.3479 4.181 85.9329 4.037 86.5809 4.037C87.6309 4.037 88.4439 4.352 89.0199 4.982C89.5959 5.612 89.8839 6.449 89.8839 7.493L89.8749 14H87.9939ZM76.3389 14V4.28H78.0129V7.088H78.2289V14H76.3389ZM82.1709 14L82.1799 7.979C82.1799 7.271 81.9999 6.716 81.6399 6.314C81.2859 5.912 80.8089 5.711 80.2089 5.711C79.6149 5.711 79.1349 5.915 78.7689 6.323C78.4089 6.731 78.2289 7.265 78.2289 7.925L77.3289 7.349C77.3289 6.713 77.4819 6.146 77.7879 5.648C78.0939 5.15 78.5079 4.757 79.0299 4.469C79.5519 4.181 80.1429 4.037 80.8029 4.037C81.4929 4.037 82.0809 4.184 82.5669 4.478C83.0529 4.766 83.4219 5.171 83.6739 5.693C83.9319 6.215 84.0609 6.821 84.0609 7.511L84.0519 14H82.1709ZM95.8839 14.261C95.2119 14.261 94.6479 14.153 94.1919 13.937C93.7359 13.721 93.3639 13.439 93.0759 13.091C92.7939 12.737 92.5779 12.353 92.4279 11.939C92.2779 11.525 92.1759 11.12 92.1219 10.724C92.0679 10.328 92.0409 9.98 92.0409 9.68V4.28H93.9489V9.059C93.9489 9.437 93.9789 9.827 94.0389 10.229C94.1049 10.625 94.2249 10.994 94.3989 11.336C94.5789 11.678 94.8279 11.954 95.1459 12.164C95.4699 12.374 95.8899 12.479 96.4059 12.479C96.7419 12.479 97.0599 12.425 97.3599 12.317C97.6599 12.203 97.9209 12.023 98.1429 11.777C98.3709 11.531 98.5479 11.207 98.6739 10.805C98.8059 10.403 98.8719 9.914 98.8719 9.338L100.042 9.779C100.042 10.661 99.8769 11.441 99.5469 12.119C99.2169 12.791 98.7429 13.316 98.1249 13.694C97.5069 14.072 96.7599 14.261 95.8839 14.261ZM99.0969 14V11.192H98.8719V4.28H100.771V14H99.0969ZM110.117 14V9.221C110.117 8.843 110.084 8.456 110.018 8.06C109.958 7.658 109.838 7.286 109.658 6.944C109.484 6.602 109.235 6.326 108.911 6.116C108.593 5.906 108.176 5.801 107.66 5.801C107.324 5.801 107.006 5.858 106.706 5.972C106.406 6.08 106.142 6.257 105.914 6.503C105.692 6.749 105.515 7.073 105.383 7.475C105.257 7.877 105.194 8.366 105.194 8.942L104.024 8.501C104.024 7.619 104.189 6.842 104.519 6.17C104.849 5.492 105.323 4.964 105.941 4.586C106.559 4.208 107.306 4.019 108.182 4.019C108.854 4.019 109.418 4.127 109.874 4.343C110.33 4.559 110.699 4.844 110.981 5.198C111.269 5.546 111.488 5.927 111.638 6.341C111.788 6.755 111.89 7.16 111.944 7.556C111.998 7.952 112.025 8.3 112.025 8.6V14H110.117ZM103.286 14V4.28H104.969V7.088H105.194V14H103.286ZM114.549 2.687V0.86H116.43V2.687H114.549ZM114.549 14V4.28H116.43V14H114.549ZM124.695 14C124.083 14.12 123.483 14.171 122.895 14.153C122.307 14.135 121.782 14.021 121.32 13.811C120.858 13.601 120.51 13.271 120.276 12.821C120.066 12.419 119.952 12.011 119.934 11.597C119.922 11.177 119.916 10.703 119.916 10.175V1.58H121.806V10.085C121.806 10.475 121.809 10.814 121.815 11.102C121.827 11.39 121.89 11.633 122.004 11.831C122.22 12.203 122.562 12.416 123.03 12.47C123.504 12.518 124.059 12.497 124.695 12.407V14ZM118.053 5.792V4.28H124.695V5.792H118.053ZM127.795 18.32L129.676 13.199L129.703 14.711L125.464 4.28H127.426L130.594 12.335H130.018L133.042 4.28H134.95L129.586 18.32H127.795Z" fill="#1F1F1F"/>
</g>
<defs>
<filter id="filter0_d_0_21" x="0.26001" y="0.77002" width="138.69" height="25.55" filterUnits="userSpaceOnUse" color-interpolation-filters="sRGB">
<feFlood flood-opacity="0" result="BackgroundImageFix"/>
<feColorMatrix in="SourceAlpha" type="matrix" values="0 0 0 0 0 0 0 0 0 0 0 0 0 0 0 0 0 0 127 0" result="hardAlpha"/>
<feOffset dy="4"/>
<feGaussianBlur stdDeviation="2"/>
<feComposite in2="hardAlpha" operator="out"/>
<feColorMatrix type="matrix" values="0 0 0 0 0 0 0 0 0 0 0 0 0 0 0 0 0 0 0.25 0"/>
<feBlend mode="normal" in2="BackgroundImageFix" result="effect1_dropShadow_0_21"/>
<feBlend mode="normal" in="SourceGraphic" in2="effect1_dropShadow_0_21" result="shape"/>
</filter>
</defs>
</svg>
