<svg width="123" height="18" viewBox="0 0 123 18" fill="none" xmlns="http://www.w3.org/2000/svg">
<path d="M4.005 13L0.243 0.0399995H2.214L4.941 9.841L7.668 0.0489999L9.648 0.0399995L12.375 9.841L15.102 0.0399995H17.082L13.311 13H11.439L8.658 3.307L5.877 13H4.005ZM25.414 13V8.221C25.414 7.843 25.381 7.456 25.315 7.06C25.255 6.658 25.135 6.286 24.955 5.944C24.781 5.602 24.532 5.326 24.208 5.116C23.89 4.906 23.473 4.801 22.957 4.801C22.621 4.801 22.303 4.858 22.003 4.972C21.703 5.08 21.439 5.257 21.211 5.503C20.989 5.749 20.812 6.073 20.68 6.475C20.554 6.877 20.491 7.366 20.491 7.942L19.321 7.501C19.321 6.619 19.486 5.842 19.816 5.17C20.146 4.492 20.62 3.964 21.238 3.586C21.856 3.208 22.603 3.019 23.479 3.019C24.151 3.019 24.715 3.127 25.171 3.343C25.627 3.559 25.996 3.844 26.278 4.198C26.566 4.546 26.785 4.927 26.935 5.341C27.085 5.755 27.187 6.16 27.241 6.556C27.295 6.952 27.322 7.3 27.322 7.6V13H25.414ZM18.583 13V0.0399995H20.266V7.033H20.491V13H18.583ZM30.9803 17.32L32.8613 12.199L32.8883 13.711L28.6493 3.28H30.6113L33.7793 11.335H33.2033L36.2273 3.28H38.1353L32.7713 17.32H30.9803ZM43.1487 13V0.0399995H48.3867C48.5127 0.0399995 48.6687 0.0459994 48.8547 0.0579993C49.0407 0.0639995 49.2177 0.0819997 49.3857 0.112C50.1057 0.225999 50.7057 0.471999 51.1857 0.85C51.6717 1.228 52.0347 1.705 52.2747 2.281C52.5147 2.857 52.6347 3.493 52.6347 4.189C52.6347 5.221 52.3707 6.112 51.8427 6.862C51.3147 7.606 50.5227 8.071 49.4667 8.257L48.7017 8.347H45.0297V13H43.1487ZM50.7267 13L48.1707 7.726L50.0697 7.24L52.8777 13H50.7267ZM45.0297 6.565H48.3147C48.4347 6.565 48.5667 6.559 48.7107 6.547C48.8607 6.535 49.0017 6.514 49.1337 6.484C49.5177 6.394 49.8267 6.229 50.0607 5.989C50.2947 5.743 50.4627 5.461 50.5647 5.143C50.6667 4.825 50.7177 4.507 50.7177 4.189C50.7177 3.871 50.6667 3.556 50.5647 3.244C50.4627 2.926 50.2947 2.647 50.0607 2.407C49.8267 2.161 49.5177 1.993 49.1337 1.903C49.0017 1.867 48.8607 1.843 48.7107 1.831C48.5667 1.819 48.4347 1.813 48.3147 1.813H45.0297V6.565ZM59.1667 13.27C58.2007 13.27 57.3517 13.06 56.6197 12.64C55.8937 12.214 55.3267 11.623 54.9187 10.867C54.5167 10.105 54.3157 9.223 54.3157 8.221C54.3157 7.159 54.5137 6.238 54.9097 5.458C55.3117 4.678 55.8697 4.075 56.5837 3.649C57.2977 3.223 58.1287 3.01 59.0767 3.01C60.0667 3.01 60.9097 3.241 61.6057 3.703C62.3017 4.159 62.8207 4.81 63.1627 5.656C63.5107 6.502 63.6487 7.507 63.5767 8.671H61.6957V7.987C61.6837 6.859 61.4677 6.025 61.0477 5.485C60.6337 4.945 60.0007 4.675 59.1487 4.675C58.2067 4.675 57.4987 4.972 57.0247 5.566C56.5507 6.16 56.3137 7.018 56.3137 8.14C56.3137 9.208 56.5507 10.036 57.0247 10.624C57.4987 11.206 58.1827 11.497 59.0767 11.497C59.6647 11.497 60.1717 11.365 60.5977 11.101C61.0297 10.831 61.3657 10.447 61.6057 9.949L63.4507 10.534C63.0727 11.404 62.4997 12.079 61.7317 12.559C60.9637 13.033 60.1087 13.27 59.1667 13.27ZM55.7017 8.671V7.204H62.6407V8.671H55.7017ZM69.3129 13.261C68.1309 13.261 67.1679 13 66.4239 12.478C65.6799 11.956 65.2239 11.221 65.0559 10.273L66.9819 9.976C67.1019 10.48 67.3779 10.879 67.8099 11.173C68.2479 11.461 68.7909 11.605 69.4389 11.605C70.0269 11.605 70.4859 11.485 70.8159 11.245C71.1519 11.005 71.3199 10.675 71.3199 10.255C71.3199 10.009 71.2599 9.811 71.1399 9.661C71.0259 9.505 70.7829 9.358 70.4109 9.22C70.0389 9.082 69.4719 8.911 68.7099 8.707C67.8759 8.491 67.2129 8.26 66.7209 8.014C66.2349 7.762 65.8869 7.471 65.6769 7.141C65.4729 6.805 65.3709 6.4 65.3709 5.926C65.3709 5.338 65.5269 4.825 65.8389 4.387C66.1509 3.949 66.5889 3.61 67.1529 3.37C67.7229 3.13 68.3889 3.01 69.1509 3.01C69.8949 3.01 70.5579 3.127 71.1399 3.361C71.7219 3.595 72.1929 3.928 72.5529 4.36C72.9129 4.786 73.1289 5.287 73.2009 5.863L71.2749 6.214C71.2089 5.746 70.9899 5.377 70.6179 5.107C70.2459 4.837 69.7629 4.69 69.1689 4.666C68.5989 4.642 68.1369 4.738 67.7829 4.954C67.4289 5.164 67.2519 5.455 67.2519 5.827C67.2519 6.043 67.3179 6.226 67.4499 6.376C67.5879 6.526 67.8519 6.67 68.2419 6.808C68.6319 6.946 69.2079 7.111 69.9699 7.303C70.7859 7.513 71.4339 7.747 71.9139 8.005C72.3939 8.257 72.7359 8.56 72.9399 8.914C73.1499 9.262 73.2549 9.685 73.2549 10.183C73.2549 11.143 72.9039 11.896 72.2019 12.442C71.5059 12.988 70.5429 13.261 69.3129 13.261ZM75.2463 13V0.0399995H80.3403C81.1623 0.0399995 81.8523 0.207999 82.4103 0.543999C82.9683 0.879999 83.3883 1.315 83.6703 1.849C83.9523 2.377 84.0933 2.935 84.0933 3.523C84.0933 4.237 83.9163 4.849 83.5623 5.359C83.2143 5.869 82.7433 6.217 82.1493 6.403L82.1313 5.962C82.9593 6.166 83.5953 6.565 84.0393 7.159C84.4833 7.747 84.7053 8.434 84.7053 9.22C84.7053 9.982 84.5523 10.645 84.2463 11.209C83.9463 11.773 83.5053 12.214 82.9233 12.532C82.3473 12.844 81.6483 13 80.8263 13H75.2463ZM77.1543 11.209H80.5383C80.9643 11.209 81.3453 11.128 81.6813 10.966C82.0233 10.804 82.2903 10.573 82.4823 10.273C82.6803 9.967 82.7793 9.604 82.7793 9.184C82.7793 8.794 82.6923 8.443 82.5183 8.131C82.3503 7.813 82.1043 7.564 81.7803 7.384C81.4623 7.198 81.0873 7.105 80.6553 7.105H77.1543V11.209ZM77.1543 5.332H80.3133C80.6613 5.332 80.9733 5.263 81.2493 5.125C81.5313 4.981 81.7533 4.777 81.9153 4.513C82.0833 4.243 82.1673 3.919 82.1673 3.541C82.1673 3.037 81.9993 2.623 81.6633 2.299C81.3273 1.975 80.8773 1.813 80.3133 1.813H77.1543V5.332ZM90.7173 13.27C89.7453 13.27 88.9023 13.051 88.1883 12.613C87.4743 12.175 86.9223 11.572 86.5323 10.804C86.1483 10.03 85.9563 9.139 85.9563 8.131C85.9563 7.117 86.1543 6.226 86.5503 5.458C86.9463 4.684 87.5013 4.084 88.2153 3.658C88.9293 3.226 89.7633 3.01 90.7173 3.01C91.6893 3.01 92.5323 3.229 93.2463 3.667C93.9603 4.105 94.5123 4.708 94.9023 5.476C95.2923 6.244 95.4873 7.129 95.4873 8.131C95.4873 9.145 95.2893 10.039 94.8933 10.813C94.5033 11.581 93.9513 12.184 93.2373 12.622C92.5233 13.054 91.6833 13.27 90.7173 13.27ZM90.7173 11.497C91.6473 11.497 92.3403 11.185 92.7963 10.561C93.2583 9.931 93.4893 9.121 93.4893 8.131C93.4893 7.117 93.2553 6.307 92.7873 5.701C92.3253 5.089 91.6353 4.783 90.7173 4.783C90.0873 4.783 89.5683 4.927 89.1603 5.215C88.7523 5.497 88.4493 5.89 88.2513 6.394C88.0533 6.892 87.9543 7.471 87.9543 8.131C87.9543 9.151 88.1883 9.967 88.6563 10.579C89.1243 11.191 89.8113 11.497 90.7173 11.497ZM100.21 13.27C99.4901 13.27 98.8871 13.138 98.4011 12.874C97.9151 12.604 97.5461 12.25 97.2941 11.812C97.0481 11.368 96.9251 10.882 96.9251 10.354C96.9251 9.862 97.0121 9.43 97.1861 9.058C97.3601 8.686 97.6181 8.371 97.9601 8.113C98.3021 7.849 98.7221 7.636 99.2201 7.474C99.6521 7.348 100.141 7.237 100.687 7.141C101.233 7.045 101.806 6.955 102.406 6.871C103.012 6.787 103.612 6.703 104.206 6.619L103.522 6.997C103.534 6.235 103.372 5.671 103.036 5.305C102.706 4.933 102.136 4.747 101.326 4.747C100.816 4.747 100.348 4.867 99.9221 5.107C99.4961 5.341 99.1991 5.731 99.0311 6.277L97.2761 5.737C97.5161 4.903 97.9721 4.24 98.6441 3.748C99.3221 3.256 100.222 3.01 101.344 3.01C102.214 3.01 102.97 3.16 103.612 3.46C104.26 3.754 104.734 4.222 105.034 4.864C105.19 5.182 105.286 5.518 105.322 5.872C105.358 6.226 105.376 6.607 105.376 7.015V13H103.711V10.777L104.035 11.065C103.633 11.809 103.12 12.364 102.496 12.73C101.878 13.09 101.116 13.27 100.21 13.27ZM100.543 11.731C101.077 11.731 101.536 11.638 101.92 11.452C102.304 11.26 102.613 11.017 102.847 10.723C103.081 10.429 103.234 10.123 103.306 9.805C103.408 9.517 103.465 9.193 103.477 8.833C103.495 8.473 103.504 8.185 103.504 7.969L104.116 8.194C103.522 8.284 102.982 8.365 102.496 8.437C102.01 8.509 101.569 8.581 101.173 8.653C100.783 8.719 100.435 8.8 100.129 8.896C99.8711 8.986 99.6401 9.094 99.4361 9.22C99.2381 9.346 99.0791 9.499 98.9591 9.679C98.8451 9.859 98.7881 10.078 98.7881 10.336C98.7881 10.588 98.8511 10.822 98.9771 11.038C99.1031 11.248 99.2951 11.416 99.5531 11.542C99.8111 11.668 100.141 11.731 100.543 11.731ZM107.713 13V3.28H109.387V5.638L109.153 5.332C109.273 5.02 109.429 4.735 109.621 4.477C109.813 4.213 110.035 3.997 110.287 3.829C110.533 3.649 110.806 3.511 111.106 3.415C111.412 3.313 111.724 3.253 112.042 3.235C112.36 3.211 112.666 3.226 112.96 3.28V5.044C112.642 4.96 112.288 4.936 111.898 4.972C111.514 5.008 111.16 5.131 110.836 5.341C110.53 5.539 110.287 5.779 110.107 6.061C109.933 6.343 109.807 6.658 109.729 7.006C109.651 7.348 109.612 7.711 109.612 8.095V13H107.713ZM118.359 13.27C117.453 13.27 116.67 13.045 116.01 12.595C115.356 12.145 114.849 11.533 114.489 10.759C114.135 9.979 113.958 9.103 113.958 8.131C113.958 7.153 114.138 6.28 114.498 5.512C114.858 4.738 115.368 4.129 116.028 3.685C116.694 3.235 117.483 3.01 118.395 3.01C119.313 3.01 120.084 3.235 120.708 3.685C121.338 4.129 121.812 4.738 122.13 5.512C122.454 6.286 122.616 7.159 122.616 8.131C122.616 9.103 122.454 9.976 122.13 10.75C121.806 11.524 121.329 12.139 120.699 12.595C120.069 13.045 119.289 13.27 118.359 13.27ZM118.62 11.569C119.238 11.569 119.742 11.422 120.132 11.128C120.522 10.834 120.807 10.429 120.987 9.913C121.167 9.397 121.257 8.803 121.257 8.131C121.257 7.459 121.164 6.865 120.978 6.349C120.798 5.833 120.516 5.431 120.132 5.143C119.754 4.855 119.271 4.711 118.683 4.711C118.059 4.711 117.546 4.864 117.144 5.17C116.742 5.476 116.442 5.887 116.244 6.403C116.052 6.919 115.956 7.495 115.956 8.131C115.956 8.773 116.052 9.355 116.244 9.877C116.442 10.393 116.736 10.804 117.126 11.11C117.522 11.416 118.02 11.569 118.62 11.569ZM121.257 13V6.007H121.041V0.0399995H122.931V13H121.257Z" fill="#1F1F1F"/>
</svg>
